<svg xmlns="http://www.w3.org/2000/svg" viewBox="2501 1671 91.03 60.004">
  <defs>
    <style>
      .cls-1 {
        fill: #fff;
      }
    </style>
  </defs>
  <g id="icon_dealers_service" transform="translate(2508.209 1345.678)">
    <path id="Path_1108" data-name="Path 1108" class="cls-1" d="M28.64,77.325a1.135,1.135,0,0,0-1.252-.259l-.64.263-.747-.5V69.346a1.128,1.128,0,0,0-.838-1.086l-3.39-.906-2.627-.7a1.143,1.143,0,0,0-.753.06l-2.782,1.225a1.133,1.133,0,0,0-.234,1.94l-.638.157a1.127,1.127,0,0,0-.841.9,7.106,7.106,0,0,0-.169,1.13c0,.422.055.627.652,1.071-1,.742-1.076.82-1.126.867-.712.688-.4,1.18.9,3.247.394.625.793,1.245,1,1.567l-.006.006-2.217.731a1.124,1.124,0,0,0,.516,2.179l2.479-.351a1.122,1.122,0,0,0,.421-.148l3.145-1.868a1.161,1.161,0,0,0,.281-.236,1.2,1.2,0,0,0,.317.044c.083,0,1.367-.273,1.515-.3a1.172,1.172,0,0,0,.817-.482c.774.644.77.712,1.765.561l2.385,1.235,2.085,2.694a1.136,1.136,0,0,0,1.766.034l1.028-1.226a1.118,1.118,0,0,0-.053-1.5Zm.916,4.865L27.318,79.3l-2.933-1.518L23.6,77.9l-.877-.729-1.243-.088s.087.672,0,.672-1.388.292-1.388.292l.847-1.226-2.388,1.4.363.174-3.145,1.868-2.479.352,2.479-.819,1.662-1.7-1.179.319s-2.3-3.533-2.207-3.621,1.27-.963,1.27-.963l1.784-.294s-2.238-1.4-2.238-1.488.152-.935.152-.935l1.3-.322.031.642s.575.088.666.088.333-.848.333-.848-.544-.233-.575-.321-.152-.818-.152-.818l-.544-.585,2.781-1.226,2.627.7,3.39.9V77.42l1.753,1.166,1.2-.5,2.761,2.861Zm5.231-8.073h-.575a1.129,1.129,0,0,0-1.132,1.125v.407a1.128,1.128,0,0,0,1.132,1.125h.575a1.128,1.128,0,0,0,1.132-1.125v-.407a1.129,1.129,0,0,0-1.132-1.126Zm0,1.534h-.575v-.408h.575ZM45.135,79.78a1.122,1.122,0,0,0-.568-.716c-.789-.413-1.2-.62-1.429-.726a1.121,1.121,0,0,0-.61-1.119c-.515-.262-1.22-.755-1.792-.662l-.858-.3a1.147,1.147,0,0,0-.661-.027l-.357-.467a1.136,1.136,0,0,0-.9-.445h-.423A1.129,1.129,0,0,0,36.4,76.439v.38a1.127,1.127,0,0,0,.9,1.1,6.879,6.879,0,0,0,1.159.2,1.134,1.134,0,0,0,.771.643,1.132,1.132,0,0,0,1.5.738,1.142,1.142,0,0,0,.522.191,1.118,1.118,0,0,0,.074,1.364c-.128.816-.3,1.441.5,1.848,1.148.584,1.672.669,2.21-.422.705-.183.594-.128,1.38-.764C45.989,81.252,46.066,80.381,45.135,79.78Zm-7.6-2.963v-.378h.423l.423.553Zm2.788,1.633-.175-.5.35.371Zm-.823-.785v-.352l1,.352Zm1.874.9c-.224-.434-.077-.279-.6-.643l.152-.263,1.089.556Zm2.781,2.715-.907.234-.333.671L42.34,81.9l.181-1.153-.333-.424.575-.351-.242-.671c.121.028,1.512.758,1.512.758v.352l.666.435ZM100.69,31.761l-2.7-5.131a1.131,1.131,0,0,0-1.135-.6l-2.1.246a1.129,1.129,0,0,0-.986.945l-.752,4.818-.65.8-2.224.592-3.173.46a1.133,1.133,0,0,0-.758.459L84.584,36.62c-.346.479-.187.886-.062,1.457l-.494.418c-.6-.229-1.009-.5-1.592-.078l-1.273.909a1.118,1.118,0,0,0-.327,1.468l-4.192,3.1-.118-.048.2-4.732A1.126,1.126,0,0,0,75.8,37.96l-.007-.025-.51-1.511a1.115,1.115,0,0,0-.494-.608l-3.858-2.284a1.125,1.125,0,0,0-.327-.13l-1.552-.351a1.116,1.116,0,0,0,.055-.536,1.6,1.6,0,0,0-2.131-1.023l-.909.532a1.107,1.107,0,0,0,.007-.577,1.13,1.13,0,0,0-1.1-.849H62.208l-3.363-1.2-.561-1.018a1.143,1.143,0,0,0-2.1.245L18.651,23.334A1.13,1.13,0,0,0,17.37,24.6l-1.161-.771a1.132,1.132,0,0,0-1.76.892l-.179,4.67-2.958,6.415a1.119,1.119,0,0,0-.1.415l-.165,3.433-1.031,1.373a1.125,1.125,0,0,0-.224.719l.146,3.483a1.1,1.1,0,0,0,.043.264c.938,3.241,2.332,8.071,2.6,9.047-.036.283-.119.876-.192,1.387a1.125,1.125,0,0,0,.676,1.193l1.745.741,2.456,2.62.178,1.622a1.13,1.13,0,0,0,1,1l3.9.418L28,67.763a1.131,1.131,0,0,0,.532.217l5.022.668a1.129,1.129,0,0,0,1.167-.622l.018-.036h1.618c1.479,1.591,2.212,2.356,2.6,2.738-.007.254-.037.632-.074.921a1.119,1.119,0,0,0,.371.976l2.193,1.94a1.135,1.135,0,0,0,1.714-.246l.644-1.03,1.309.1,3.69,6.6a1.13,1.13,0,0,0,.534.484c3.6,1.571,3.655,1.571,3.949,1.571a1.126,1.126,0,0,0,1.127-1.227L54.146,77.9c3.458-2.563,5.082-3.77,5.863-4.39.908.132,3.18.493,4.5.7,1.923.3,1.923.3,2.037.3a1.123,1.123,0,0,0,.59-.148l.2.136a1.139,1.139,0,0,0,.644.2.913.913,0,0,0,.156-.011l.509-.071a1.13,1.13,0,0,0,.9-.7,1.118,1.118,0,0,0-.166-1.118c-.259-.324-.462-.575-.627-.77.025-.072.053-.147.08-.22.65-.094,1.886-.278,4.28-.638l1.22,1.242a1.137,1.137,0,0,0,1.419.161c.559-.355,1.157-.733,1.586-1,.49.354,1.228.9,1.971,1.438a6.159,6.159,0,0,0-.035,1.54c.115.553,4.407,6.471,4.446,6.507a1.18,1.18,0,0,0,.809.324A9.312,9.312,0,0,0,86.3,80.71c1.115-.331.852-1.826.838-4.706,0-.382,0-.391-4.1-8.009l3.488-6.572c1.345-.317,1.363-.343,1.65-1.687l2.635-3.213a1.122,1.122,0,0,0,.164-1.153l-1.081-2.5a31.142,31.142,0,0,0,1-4.026c.434-.346.451-.931.558-1.5.756.209,1.362-.184,1.491-1.725l2.291-2.349a1.118,1.118,0,0,0,.23-1.218l1.371-.861a1.121,1.121,0,0,0,.51-1.139l-.58-3.383,3.708-3.577a1.123,1.123,0,0,0,.221-1.331Zm-7.633,4.115.441-1.14-.251-1.2.122-.151,1.69,4.4-.582.58-1.422.346V35.875ZM92.75,33.9l.164.787-.4,1.031-.014,3.13-.564.138-.312-1.443-.5-1.167v-.792l-.486-1.119Zm1.342,6.666.327.809-2.058,1.409L92.07,42.2l-.025-1.1c.362-.1,1.234-.326,2.048-.529Zm.555-.138.126-.031.484.451-.352.222Zm-12.394.711-.435-.9,1.273-.909a6.918,6.918,0,0,0,1.165.409.08.08,0,0,0,.036-.007c.109-.071,1.472-1.239,1.472-1.239l-.266-1.22,1.628-2.265,2.948-.427.481,1.065v.788l.526,1.279.354,1.65.036,1.537v.007h0l.032,1.371.385.825-.172.116-1.691-.7-.654.385-.453-1.288-.7.079-.364-.106c-.76.042-1.608.081-1.664.084-.1-.028-.156-.043-4.95,1.1l-.411-.585Zm7.953,6.718-1.149-.706-.363-.46s1.184-1.114,1.208-1.126l.624.6ZM79.016,58.91l2.078-.224.992.818,1.529-.317L85.633,60.7l-2.545,4.8L78.48,60.173l-.589-.3Zm-.927,1.671,4.715,5.45-.962,1.812H80.719v.633l-.1-.08-4.485.38-.26-.367-.3-2.963-1.115-3.313L73.991,60l3.176-.253L76.861,60Zm-8.437,6.912V60.336l3.769-.3.5,2.242,1.108,3.279.264,2.7-4.788.5.55,1.592c-.345.051-.689.1-1.026.152Zm-3.433-7.448.083-.553.441-.705.288-1.327,1.762-.2.436-.352,9.816-1.074-.448.751H78.16l-3.073,2.754Zm-1.975,2.3-.314,2.127.092.323H59.534V63.92l-.8-.236V59.872L58.5,57.8c.959-.057,4.479-.13,6.941-.17l.043.047-1.02.9,1.58.273-.25.4-.166.971-.636.615v.9ZM44.319,57.061l.02-.7h1.489c.76.047,8.366.251,11.975.345l.1.872h0L58.17,59.9v3.473l-.64-.41-2.343.494-1.079-.488-1.3.2-.507-.621-1.663-.307-.177-.373-1.15-.294V57.06Zm-20.082-2.2s-.157,1.319-.22,1.858l-6.4-9.684,1.294-6.046c4.8,1.083,7.679,1.724,8.587,1.913L25.182,55.037l-.174-.18Zm.19-18.612,1.761-2.323-.706-.873,1.6-7.393.572.081-.52,3.624.627,1.49,1.1,1.818-.65,2.159.481.941.715-.7.078.124.793,2.913,1.124-.391,1.474.256-.654,5.115c-1.7-.278-4.246-.689-4.367-.689-.153-.021-2.008-.433-4.22-.927l1.336-4.686Zm29.409-4.081c.036.1.259.56.354.757l.359,3.3-10.241-.462c.218-3.407.417-6.507.484-7.6l9.02,1.272c-.027.739-.019,2.6.024,2.729Zm7.009,4.872.6-.64.166-1.4,1.541-.73.141.687.531-.312v.467l.73.563,1.9.633,1.074.2V37.4c0,.119,0,.2.529.581l-.5,1.048L69.076,37.4s-1.038,5.181-1.014,5.217c.007.012.161.358.358.807l-4.178.363-.23-.295-.327-.265L63.43,41.9l-.337-.271.359-.7-.171-.144c-1.486-1.24-2.092-1.673-2.092-1.673a5.713,5.713,0,0,1-.36-.941l.308-.371Zm8.383,5.423c.035-.188.086-.453.147-.771.009.035.016.071.024.107.063.294.123.563.165.764-.042.091-.093.2-.151.322-.076-.185-.135-.318-.185-.426Zm3.816,2.43L73.7,51.1l-.693.243-.942,1.82-1.468.513-.664-.415-.756.553v-.49l.8-1.427-.316-.669s.024-6.263.038-6.3Zm1.2,5.923.4.089.371.629,1.3.316.717-.407.559.35v.678l.942,1.266-1.981,1.814L69,56.374l-.437.351-.865.1c.036-.083.076-.175.118-.283l.053-.132-.341-.539.086-.07.65.2.846-1.437.849-.622.568.354,1.94-.678.942-1.82.9-.317Zm13.941-8.533.349,1.974.958.915-1.31,1.242-7.253,1.538-.337-1.334c-.02-.154-.113-.815-.561-3.822l.352-.26.624.885.188-.045c1.836-.44,4.632-1.1,4.926-1.148.142.009.524,0,1.718-.07Zm-.222,7.878h-.672c-.223-.044-.48-.1-.659-.146l.336-.847s-.585-.445-.721-.541l.577-.495-.311-.793,1.252-.265-.319.841Zm-2.011-2.7.2.507-.471.4h-.032l-.623-.71Zm-2.822.6-.443.383-.051-.279Zm-2.917.746s.11-.585.147-.787l.151.6,1.575-.334.223,1.238,1.246-1.08.3-.047-.2,1c-.281.364-.606.768-.775.954-.1-.046-.266-.114-.522-.214l-.307-.121-.64,2.784-1.835,1-.478-.249-.944-1.267v-.606l.374-1.263ZM66.277,58.314l-.561-.1.574-.5-.609-.653h-.126c-4.711.075-6.449.126-7.121.186l-.1-.829V51.51l-.1-.084a10,10,0,0,1-.738-.7V50.09l-.376-.606-.285-.818,5.588-.139a4.308,4.308,0,0,0,.329.317c.034.135.074.487.1.705.062.525.079.647.146.742.033.049.1.151,1.134.755l.336,1.679.508-.491.141.18-.451,1.05,1.576,1.372.321,1.247H67l.239.377a3.361,3.361,0,0,1-.215.434l-.466.053ZM32.49,45.417l.976-7.618.146-.522,9.962,1.064c-.241,3.755-.47,7.306-.535,8.33ZM43.848,42.9c3.163.118,7.661.292,8.179.327.118.121.747,1.138.747,1.138s.916-.569,1.066-.653c.163.078.537.3.864.513l1.768,5.064-10.1-.048.091-2.194L43.6,46.734C43.653,45.916,43.743,44.546,43.848,42.9Zm2.5,6.9,10.354.049.239.392V50.8c0,.119,0,.223.833.965v4.381c-3.177-.083-10.255-.274-11.674-.329Zm22.741-4.852.006,6.338.248.585-.73,1.3v1.116L68,55.329l-.507-.159-.441.352H67.01l-.258-.993-1.4-1.218.42-.979-.731-.94-.216.21-.182-.913-.112-.064c-.411-.241-.9-.536-1.048-.649-.02-.1-.044-.323-.066-.49a6.158,6.158,0,0,0-.122-.8l.833-1.463-.146-.151a2.771,2.771,0,0,1-.3-.36c.081-.107.177-.247.249-.354h.825l.543-1.2-.66-.85,4.007-.349c.159.346.313.7.441.992Zm-6.454-2.972.276.223.255,1.334.418.323,1.07,1.379-.254.556h-.771l-.084.13a5.331,5.331,0,0,1-.357.509c-.194.188-.12.453.249.87l-.517.912c-.053-.054-.109-.109-.158-.163l-.087-.093-6.02.15-1.436-4.132-.242-1.5.118-.5ZM54.582,38.1v3.563l-.187.793.163,1.012c-.629-.381-.732-.359-.832-.324a6.187,6.187,0,0,0-.762.436c-.522-.845-.685-.879-.779-.9-.157-.033-5.141-.224-8.3-.343.119-1.845.256-3.969.387-6.019l10.164.459a2.582,2.582,0,0,0-.252.752.824.824,0,0,0,.4.571ZM43.61,37.779,33.2,36.667l-.213.755-1.633-.285-.688.24-.645-2.368-.512-.825-.662.649-.027-.056.657-2.181-1.211-2-.549-1.312.5-3.47,16.018,2.259C44.155,29.3,43.88,33.589,43.61,37.779ZM28.052,42.992c.674.1,2.62.414,4.1.654l-.291,2.242,3.152.49c-.2,1.511-.641,4.738-1.115,8.252l-7.816-1.278Zm7.519,3.46,7.9.832,2.4.264-.34,8.252H44.076l-9.62-1.093C34.856,51.74,35.254,48.789,35.571,46.452ZM79.3,55.244l-1.8.2,1.457-1.335.629.326L81.91,53.17l.544-2.392c.137.055.274.114.318.136.234.148.32.139,1.371-1.233l.222-.965c.873.157,1.2.208,1.332.223.093.055.343.234.585.416-.1.258-.264.967-.264.967a6.4,6.4,0,0,0,1.215.4h.87l.529,2.078.378.877Zm9.662-3.012-.336-2.061-.849-1.612.278-.646.684,1.933.832-.216Zm.8-3.421-.049.2-.617.161-.672-1.9.216.273.55.345ZM76.794,45.18l2.713-2.007c.223,1.489.5,3.393.517,3.472-.012.1-.208,1.17-.341,1.878L78.026,50.11,77.7,51.2l-.662-.415-.815.464-.844-.207L75,50.408l-.832-.182L73.61,44.88l1.748-.021.34-.138ZM67.553,32.458l.435.211L66.5,34l1.053-.134,2.8.633,3.858,2.284.509,1.511a11.738,11.738,0,0,0-.814,2h.009c.186-.071,1.676-1.23,1.676-1.23l-.224,5.2-5.4.1c.371-.787.782-1.66.782-1.681,0-.038-.637-2.909-.661-3.091s1.44-3.565,1.44-3.565c-.071.055-2.832.6-2.832.6l-.393.824c-.085-.064-.164-.125-.212-.166V36.039l-1.5-.279L64.86,35.2l-.471-.364V34.31Zm-10.693-2.6.428-.936.769,1.392L62.01,31.72h2.97l-1.833.984L61.8,34.284l-.712.337-.18,1.525-.709.761.293.779-.269.326.551,1.473s1.116.872,1.97,1.58l-.18.347H55.15v-3.62l-.134-.083a2.158,2.158,0,0,0-.266-.168,6.512,6.512,0,0,1,.374-.909l.033-.071-.434-3.846s-.309-.631-.34-.7c-.025-.188-.028-1.9-.016-2.515Zm-41.284-5.1,2.33,1.546.072,1.617.946-1.441-.437-2.039,8.033,1.132-1.55,7.171-2.351-.883H19.137l-2.122-.378v-1.1L15.4,29.327Zm-.308,5.153,1.179.769v1.274l2.639.466h3.428L25,33.359l.467.575L23.678,36.3l.654.651-1.253,4.4c-1.452-.325-3.005-.675-4.3-.968l-6.537-2.1.1-2Zm3.074,30.072-2.875-3.069L13.5,56.082s.218-1.519.218-1.624-2.032-9.221-2.032-9.221L10.918,41.7l1.237-1.649.058-1.191,6.148,1.978-1.35,6.308,6.908,10.445c-.024.211-.038.356-.038.385a5.645,5.645,0,0,0,.518,1.382l-.411.322-1.32,2.02.607.513-.029.069-.54-.166-.332.272-3.814-.409Zm5.1,2.949.522-.875-.551-.466.966-1.5.712-.558s-.62-1.488-.642-1.551c.006-.117.17-1.515.294-2.561l.8.8.44-2.312,7.847,1.282c-.665,4.9-1.377,10.209-1.625,12.142l-3.52-.468Zm10.589,3.929-.327.669-.942-.125c.235-1.824.921-6.945,1.622-12.142l9.392,1.067-.028,1-.742,9.47L36.537,66.1l.07.773ZM52.956,77.373l.327,3.548c-.109,0-3.494-1.477-3.494-1.477L45.8,72.31l-2.6-.2-1.006,1.61L40,71.783s.187-1.511,0-1.617c-.146-.082-2-2.062-2.791-2.915l-.048-.527,6.363.693.764-9.795h4.458V62l1.315.336.187.4,1.744.322.581.711,1.456-.22,1.1.493,2.3-.487.88.567.668.211v3.244l.55.532L60.04,69.4l-.469,1.525.146.488-.408,1.235C57.874,73.726,52.956,77.373,52.956,77.373Zm15.02-3.8-1.262-.867s-.1.679-.17.679S61.262,72.546,60,72.371l.315-.951-.147-.493.477-1.554-.617-1.526-.488-.5V65.355h4.64l.385,1.362-.585.909-.56,2.148H66.7l-.055.556,1.107,1.135a3.325,3.325,0,0,0-.259.874c.072.024,1,1.172,1,1.172Zm.074-2.79c-.011,0-.035.044-.066.1l-.752-.771.092-.914H64.146l.336-1.321.694-1.083-.67-2.374.265-1.795.78-.644v-.922l.455-.443,3.077-.245v7.147l.381,3.053c-.788.129-1.391.217-1.415.217ZM86,75.967c0,.071.024,3.655-.072,3.678a14.086,14.086,0,0,1-1.41.614.031.031,0,0,1-.022-.006c-.071-.071-4.1-5.811-4.125-5.928s.1-1.851.1-1.851-3.061-2.249-3.1-2.249-2.242,1.406-2.242,1.406L73.5,69.977l-1.885.283-.353-1.02L75.46,68.8l.4.558,4.578-.39.846.688V68.4h.689C82.835,70,86,75.906,86,75.967Zm3.931-20.152-2.807,3.422-.2.938-.8.189-2.371-1.781-1.516.312L81.27,58.1l-2.488.267-.884.752-1.888.15,2.363-2.119h.542l.84-1.412,9.394-1.523.084-.025Zm1.916-10.693-.1,1.136-1.77-1.606-.424-1.206.507-.3,1.715.7L94,42.366c.162.039.42.118.42.118Zm3.9-4.58-.818-.759s-2.452.6-2.9.74l-.023-.975.839-.207h0l1.927-.471.583-.581.539-.029.338,1.979Zm-.2-4.269L95.8,37.7l-.155.009L93.789,32.88l.3-.367.8-5.117,2.1-.246,2.7,5.131Z" transform="translate(-17 302)"/>
  </g>
</svg>
