<svg xmlns="http://www.w3.org/2000/svg" viewBox="-5419 15458 60 43.637">
  <defs>
    <style>
      .cls-1 {
        fill: #9d0303;
        fill-rule: evenodd;
      }
    </style>
  </defs>
  <path id="Path_1163" data-name="Path 1163" class="cls-1" d="M53,18l4.889-5.639.929,1L53.929,19Zm7,7.906S48.068,43.636,30,43.636,0,25.909,0,25.909A47.249,47.249,0,0,1,6.067,19L1.182,13.361l.93-1L7,18l-.885.949a46.647,46.647,0,0,1,6.9-5.426L9.641,7.745l1.223-.6,3.308,5.671a34.57,34.57,0,0,1,7.181-3.265L19.126,3.026l1.331-.3,2.2,6.445A28.318,28.318,0,0,1,30,8.182V0h1.364V8.223a28.843,28.843,0,0,1,7.219,1.316l2.324-6.811,1.331.3-2.37,6.946a35.975,35.975,0,0,1,6.964,3.461L50.5,7.145l1.223.6-3.75,6.431A49.511,49.511,0,0,1,60,25.909Zm-30-15c-15.357,0-25.909,15-25.909,15s10.552,15,25.909,15,25.909-15,25.909-15S45.357,10.909,30,10.909Zm0,25.909A10.909,10.909,0,1,1,40.909,25.909,10.91,10.91,0,0,1,30,36.818ZM24.545,17.727a2.727,2.727,0,1,0,2.727,2.727A2.727,2.727,0,0,0,24.545,17.727Z" transform="translate(-5419 15458)"/>
</svg>
