<svg xmlns="http://www.w3.org/2000/svg" viewBox="-1066 10498 44 40">
  <defs>
    <style>
      .cls-1 {
        fill: #fff;
        fill-rule: evenodd;
      }
    </style>
  </defs>
  <path id="Path_1100" data-name="Path 1100" class="cls-1" d="M42,40H0V11L9,2H9l2-2V11l9-9h0l2-2V2h0v9l9-9h0l2-2V11l9-9h0l2-2V40ZM18,38h8V25H18ZM9,4,2,11H9ZM20,4l-7,7h7ZM31,4l-7,7h7ZM42,4l-7,7h7Zm0,9H2V38H16V23H28v2h0V38H42ZM32,17H30V15h2Zm0,4H30V19h2Zm0,4H30V23h2Zm0,4H30V27h2Zm0,4H30V31h2Zm0,4H30V35h2Zm4-20H34V15h2Zm0,4H34V19h2Zm0,4H34V23h2Zm0,4H34V27h2Zm0,4H34V31h2Zm0,4H34V35h2Zm4-20H38V15h2Zm0,4H38V19h2Zm0,4H38V23h2Zm0,4H38V27h2Zm0,4H38V31h2Zm0,4H38V35h2ZM12,35h2v2H12Zm0-4h2v2H12Zm0-4h2v2H12Zm0-4h2v2H12Zm0-4h2v2H12Zm0-4h2v2H12ZM8,35h2v2H8Zm0-4h2v2H8Zm0-4h2v2H8Zm0-4h2v2H8Zm0-4h2v2H8Zm0-4h2v2H8ZM4,35H6v2H4Zm0-4H6v2H4Zm0-4H6v2H4Zm0-4H6v2H4Zm0-4H6v2H4Zm0-4H6v2H4Z" transform="translate(-1066 10498)"/>
</svg>
