<svg xmlns="http://www.w3.org/2000/svg" viewBox="950 30 39.111 44">
  <defs>
    <style>
      .cls-1 {
        fill: #455860;
        fill-rule: evenodd;
      }
    </style>
  </defs>
  <path id="icon_engineer_certified_black" class="cls-1" d="M0,44V36.667c0-6.514,13.041-9.778,19.556-9.778s19.556,3.263,19.556,9.778V44Zm36.667-7.333c0-3.667-9.778-7.319-17.111-7.333C12.4,29.333,2.444,33,2.444,36.667v4.889H36.667Zm-7.333-22h0a9.778,9.778,0,0,1-19.556,0H4.889V12.222h2.69a12.076,12.076,0,0,1,4.643-7.254V2.444h2.444V3.516a12.315,12.315,0,0,1,3.667-.964V0h2.444V2.552a12.315,12.315,0,0,1,3.667.964V2.444h2.444V4.968a12.076,12.076,0,0,1,4.643,7.254h2.69v2.444H29.333ZM19.556,22a7.333,7.333,0,0,0,7.333-7.333H12.222A7.333,7.333,0,0,0,19.556,22ZM26.889,8.243V9.778H24.444V6.253a9.733,9.733,0,0,0-3.667-1.26V7.333H18.333V4.993a9.733,9.733,0,0,0-3.667,1.26V9.778H12.222V8.243a9.681,9.681,0,0,0-2.124,3.98H29.013A9.681,9.681,0,0,0,26.889,8.243Z" transform="translate(950 30)"/>
</svg>
