<svg xmlns="http://www.w3.org/2000/svg" viewBox="-5857 15309 60 59">
  <defs>
    <style>
      .cls-1 {
        fill: #9d0303;
        fill-rule: evenodd;
      }
    </style>
  </defs>
  <g id="Group_753" data-name="Group 753" transform="translate(-5913 13428)">
    <g id="Group_589" data-name="Group 589" transform="translate(56 1897.093)">
      <path id="Path_1161" data-name="Path 1161" class="cls-1" d="M0,42.912V34.867C0,27.72,13.167,24.141,19.742,24.141s19.737,3.58,19.737,10.726v8.045Zm37.832-8.042c0-4.022-8.225-8.941-18.1-8.941-9.048,0-18.1,4.918-18.1,8.941v6.259H37.837Zm-18.1-13.411c-5.453,0-9.869-4.814-9.869-10.727S14.289,0,19.742,0s9.869,4.8,9.869,10.726S25.194,21.458,19.742,21.458Zm0-19.67c-4.543,0-8.225,4-8.225,8.941S15.2,19.67,19.742,19.67s8.225-4,8.225-8.941S24.284,1.789,19.742,1.789Z" transform="translate(-0.005 -0.005)"/>
    </g>
    <path id="Path_1160" data-name="Path 1160" class="cls-1" d="M45.09,29.5C38.151,27.807,33,20.861,33,13.411V5.364L45.09,0l12.09,5.364v8.047C57.179,20.861,52.027,27.807,45.09,29.5ZM55.836,6.035,45.09,1.341,34.343,6.035v7.376c.672,8.047,5.743,13.216,10.746,14.752,5-1.536,10.075-6.706,10.746-14.752Zm-10.3,12.741H43.746v-4.47H39.269V12.517h4.478V8.047h1.791v4.47h4.478v1.788H45.537Z" transform="translate(58.821 1881)"/>
  </g>
</svg>
