<svg xmlns="http://www.w3.org/2000/svg" viewBox="2116 1531 60.004 59.974">
  <defs>
    <style>
      .cls-1 {
        fill: #fff;
        fill-rule: evenodd;
      }
    </style>
  </defs>
  <path id="icon_manufacturing" class="cls-1" d="M44.664,36.056l-7.617-7.622L50.908,14.567c5.37-2.748,2,0,8.867-8.87a1.17,1.17,0,0,0-.126-1.625l-3.5-3.5a1.178,1.178,0,0,0-1.62-.123C46.038,6.82,47.911,4.7,45.664,9.319L31.677,23.063,24.06,15.441A12.253,12.253,0,0,0,8.325.7a1.634,1.634,0,0,0-.75,1,1.743,1.743,0,0,0,.376,1.125l6.118,6.122a3.621,3.621,0,0,1-5.12,5.122L2.831,7.945A1.456,1.456,0,0,0,1.582,7.7a1.07,1.07,0,0,0-.874.749A12.223,12.223,0,0,0,15.443,24.186l7.617,7.622-3,3c-.25-.126-3.5-4.373-5.494-.875-1.374,2.5,1,4.623-1,5.122A22.232,22.232,0,0,0,9.071,40.68a15.113,15.113,0,0,0-4.62,3.5C.832,48.8-.791,55.044.458,56.169c3.747,3.372,3.247,3.748,4.5,3.748s5.744-.249,10.988-4.373c1.623-1.249,4-4.622,5.12-9.12.5-2,2.623.5,5.12-1h0a2.351,2.351,0,0,0,1.248-1.874c.126-1.749-1.5-2.874-2.247-3.623l3-3L35.8,44.55A12.454,12.454,0,0,0,47.786,60.041a14.764,14.764,0,0,0,4-.625,1.5,1.5,0,0,0,.874-.874,1.007,1.007,0,0,0-.374-1.125L46.038,51.3c-3.5-3.5,1.873-8.37,5.12-5.122L57.276,52.3a1.747,1.747,0,0,0,1.125.374,1.234,1.234,0,0,0,.874-.874A12.1,12.1,0,0,0,44.664,36.056Zm-19.731,7.37h0c-1.124.625-5.244-1.748-6.368,2.5-1,3.874-3.123,6.873-4.246,7.747A17.842,17.842,0,0,1,5.2,57.543L2.581,54.795c0-1.249.5-4.873,3.871-9.12A16.926,16.926,0,0,1,10.323,42.8c3.372-1.874,7.367-1.123,6.369-6-.376-1.749,0-1.749,0-1.874.25.249,8.117,8.12,8.241,8.494ZM47.786,10.444,49.409,7.2l5.746-4.373,2,2-4.37,5.748c-4.746,2.372-.75-.875-17.608,15.865l-1.749-1.749C48.285,9.945,47.537,10.819,47.786,10.444ZM5.453,19.189a9.384,9.384,0,0,1-2.747-7.87c3.747,3.248,5,6.246,8.867,6.246a6.465,6.465,0,0,0,4.37-1.749,6.261,6.261,0,0,0,0-8.745L11.322,2.7c11.488-1.249,15.11,15.367,4.121,18.989h0C15.319,21.563,9.575,23.437,5.453,19.189Zm17.733-1.123,7.617,7.62,3.5,3.5h0l7.741,7.747a11.925,11.925,0,0,0-5.12,5.122L18.066,23.187a11.927,11.927,0,0,0,5.12-5.122ZM26.557,35.3l-3,3-1.748-1.749,3-3ZM57.526,48.8l-4.495-4.5a5.364,5.364,0,0,0-4.37-1.749,6.178,6.178,0,0,0-4.37,10.494l4.495,4.5c-13.237,1.5-14.861-19.489-1-19.489A9.779,9.779,0,0,1,57.526,48.8Z" transform="translate(2115.959 1530.933)"/>
</svg>
