<svg xmlns="http://www.w3.org/2000/svg" viewBox="1718 32 44 26.074">
  <defs>
    <style>
      .cls-1 {
        fill: #455860;
        fill-rule: evenodd;
      }
    </style>
  </defs>
  <path id="icon_free_shipping_and_installation_black" class="cls-1" d="M39.926,21.185a4.889,4.889,0,0,1-9.778,0H13.037a4.889,4.889,0,0,1-9.778,0H0C0,1.459,0,1.832,0,0H29.333V3.259h4.889L44,13.037v8.148ZM8.148,24.444a3.259,3.259,0,1,0-3.259-3.259A3.261,3.261,0,0,0,8.148,24.444ZM29.333,4.889H27.7V1.63H1.63V19.556H3.544a4.882,4.882,0,0,1,9.209,0H29.333Zm5.7,19.556a3.259,3.259,0,1,0-3.259-3.259A3.261,3.261,0,0,0,35.037,24.444ZM33.407,4.889H30.963v8.148H41.556Zm8.963,9.778H30.963v3.818a4.884,4.884,0,0,1,8.679,1.071H42.37Z" transform="translate(1718 32)"/>
</svg>
