<svg xmlns="http://www.w3.org/2000/svg" viewBox="-1170 10090 70 70">
  <defs>
    <style>
      .cls-1, .cls-4 {
        fill: none;
      }

      .cls-1 {
        stroke: #9d0303;
        stroke-width: 2px;
      }

      .cls-2 {
        fill: #9d0303;
        fill-rule: evenodd;
      }

      .cls-3 {
        stroke: none;
      }
    </style>
  </defs>
  <g id="Group_279" data-name="Group 279" transform="translate(-1304 9403)">
    <g id="Ellipse_66" data-name="Ellipse 66" class="cls-1" transform="translate(134 687)">
      <circle class="cls-3" cx="35" cy="35" r="35"/>
      <circle class="cls-4" cx="35" cy="35" r="34"/>
    </g>
    <path id="Path_1067" data-name="Path 1067" class="cls-2" d="M31.466,21.513a40.965,40.965,0,0,1-6.941,5.311c.03,2.624-.916,9.2-11.949,12.187.457-.451,6.812-6.113,6.548-9.558a20.344,20.344,0,0,1-4.406,1.075l-2.142,4.288-8.4-8.4L8.465,24.27a20.435,20.435,0,0,1,1.074-4.41C6.1,19.6.44,25.957-.011,26.413,2.973,15.371,9.544,14.425,12.166,14.455a40.977,40.977,0,0,1,5.307-6.946c8.4-8.4,20.289-6.3,20.289-6.3S39.861,13.11,31.466,21.513Zm-22.388,4.2-2.1.7,5.6,5.6.7-2.1ZM36.363,2.607a22.1,22.1,0,0,0-17.491,6.3s-7,7-9.095,14.7l5.6,5.6c7.7-2.1,14.692-9.1,14.692-9.1A22.143,22.143,0,0,0,36.363,2.607Zm-11.894,11.9a3.959,3.959,0,1,1,5.6,0A3.965,3.965,0,0,1,24.469,14.511Zm4.2-4.2a1.98,1.98,0,1,0,0,2.8A1.978,1.978,0,0,0,28.667,10.309ZM4.18,29.215l5.6,5.6a9.85,9.85,0,0,1-3.5,2.1,27.776,27.776,0,0,1-4.9.7,27.771,27.771,0,0,1,.7-4.9A9.869,9.869,0,0,1,4.18,29.215Z" transform="translate(148.011 702.026)"/>
  </g>
</svg>
