<svg xmlns="http://www.w3.org/2000/svg" viewBox="-560 11507 40 40">
  <defs>
    <style>
      .cls-1 {
        fill: #fff;
      }

      .cls-2, .cls-4 {
        fill: none;
      }

      .cls-2 {
        stroke: #fff;
        stroke-width: 2px;
      }

      .cls-3 {
        stroke: none;
      }
    </style>
  </defs>
  <g id="Group_447" data-name="Group 447" transform="translate(-941 10471)">
    <path id="Path_1020" data-name="Path 1020" class="cls-1" d="M12.72,38.639a19.273,19.273,0,0,1,.066-5.74c.361-1.558,2.347-9.938,2.347-9.938a7.288,7.288,0,0,1-.591-2.968c0-2.788,1.609-4.854,3.627-4.854,1.707,0,2.528,1.279,2.528,2.821,0,1.722-1.1,4.28-1.658,6.658a2.9,2.9,0,0,0,2.971,3.608c3.562,0,6.286-3.756,6.286-9.168,0-4.789-3.447-8.134-8.371-8.134A8.662,8.662,0,0,0,10.882,19.6a7.681,7.681,0,0,0,1.494,4.559.593.593,0,0,1,.131.574c-.148.64-.492,1.984-.558,2.263-.082.361-.3.443-.673.262C8.781,26.093,7.206,22.435,7.206,19.5c0-6.314,4.6-12.1,13.229-12.1,6.943,0,12.343,4.953,12.343,11.562,0,6.888-4.35,12.448-10.39,12.448a5.363,5.363,0,0,1-4.6-2.3s-1,3.821-1.247,4.756a22.491,22.491,0,0,1-2.495,5.248C13.257,38.861,13.367,38.867,12.72,38.639Z" transform="translate(381 1036)"/>
    <g id="Ellipse_25" data-name="Ellipse 25" class="cls-2" transform="translate(381 1036)">
      <circle class="cls-3" cx="20" cy="20" r="20"/>
      <circle class="cls-4" cx="20" cy="20" r="19"/>
    </g>
  </g>
</svg>
