<svg xmlns="http://www.w3.org/2000/svg" viewBox="-580 10090 70 70">
  <defs>
    <style>
      .cls-1 {
        fill: none;
      }

      .cls-2, .cls-4 {
        fill: #9d0303;
      }

      .cls-2 {
        fill-rule: evenodd;
      }

      .cls-3, .cls-4 {
        stroke: none;
      }
    </style>
  </defs>
  <g id="Group_281" data-name="Group 281" transform="translate(-1303 9403)">
    <g id="Path_1070" data-name="Path 1070" class="cls-1" transform="translate(723 687)">
      <path class="cls-3" d="M35,0A35,35,0,1,1,0,35,35,35,0,0,1,35,0Z"/>
      <path class="cls-4" d="M 35 68 C 39.45585632324219 68 43.7773551940918 67.12776947021484 47.84447860717773 65.40752410888672 C 51.77385711669922 63.74553298950195 55.3032112121582 61.3658332824707 58.33452224731445 58.33452224731445 C 61.3658332824707 55.3032112121582 63.74553298950195 51.77385711669922 65.40752410888672 47.84447860717773 C 67.12776947021484 43.7773551940918 68 39.45585632324219 68 35 C 68 30.54414367675781 67.12776947021484 26.2226448059082 65.40752410888672 22.15552139282227 C 63.74553298950195 18.22614479064941 61.3658332824707 14.6967887878418 58.33452224731445 11.66547775268555 C 55.3032112121582 8.634166717529297 51.77385711669922 6.254466533660889 47.84447860717773 4.592477798461914 C 43.7773551940918 2.872233390808105 39.45585632324219 2 35 2 C 30.54414367675781 2 26.2226448059082 2.872233390808105 22.15552139282227 4.592477798461914 C 18.22614479064941 6.254466533660889 14.6967887878418 8.634166717529297 11.66547775268555 11.66547775268555 C 8.634166717529297 14.6967887878418 6.254466533660889 18.22614479064941 4.592477798461914 22.15552139282227 C 2.872233390808105 26.2226448059082 2 30.54414367675781 2 35 C 2 39.45585632324219 2.872233390808105 43.7773551940918 4.592477798461914 47.84447860717773 C 6.254466533660889 51.77385711669922 8.634166717529297 55.3032112121582 11.66547775268555 58.33452224731445 C 14.6967887878418 61.3658332824707 18.22614479064941 63.74553298950195 22.15552139282227 65.40752410888672 C 26.2226448059082 67.12776947021484 30.54414367675781 68 35 68 M 35 70 C 15.67003345489502 70 0 54.3299674987793 0 35 C 0 15.67003345489502 15.67003345489502 0 35 0 C 54.3299674987793 0 70 15.67003345489502 70 35 C 70 54.3299674987793 54.3299674987793 70 35 70 Z"/>
    </g>
    <path id="Path_1068" data-name="Path 1068" class="cls-2" d="M38.867,13.2l3.584-4.135.682.731-3.584,4.135ZM44,19S35.25,32,22,32,0,19,0,19a34.649,34.649,0,0,1,4.449-5.069L.867,9.8l.682-.731L5.133,13.2l-.649.7A34.208,34.208,0,0,1,9.542,9.919L7.07,5.68l.9-.44L10.393,9.4a25.351,25.351,0,0,1,5.266-2.394L14.026,2.219,15,2l1.612,4.726A20.767,20.767,0,0,1,22,6V0h1V6.03a21.151,21.151,0,0,1,5.294.965L30,2l.976.219L29.236,7.313a26.382,26.382,0,0,1,5.107,2.538l2.69-4.611.9.44L35.18,10.4A36.308,36.308,0,0,1,44,19ZM22,8C10.737,8,3,19,3,19s7.737,11,19,11S41,19,41,19,33.263,8,22,8Zm0,19a8,8,0,1,1,8-8A8,8,0,0,1,22,27ZM18,13a2,2,0,1,0,2,2A2,2,0,0,0,18,13Z" transform="translate(736 706)"/>
  </g>
</svg>
