<svg xmlns="http://www.w3.org/2000/svg" viewBox="882 9969 46 44">
  <defs>
    <style>
      .cls-1 {
        fill: #9d0303;
        fill-rule: evenodd;
      }
    </style>
  </defs>
  <path id="Path_1097" data-name="Path 1097" class="cls-1" d="M40,34H10L0,44V6A6,6,0,0,1,6,0H40a6,6,0,0,1,6,6V28A6,6,0,0,1,40,34ZM44,6a4,4,0,0,0-4-4H6A4,4,0,0,0,2,6V39l7-7H40a4,4,0,0,0,4-4ZM39.111,26H6.889A.889.889,0,0,1,6,25.111,1.11,1.11,0,0,1,7.111,24H38.889A1.11,1.11,0,0,1,40,25.111.889.889,0,0,1,39.111,26Zm0-8H6.889A.889.889,0,0,1,6,17.111,1.11,1.11,0,0,1,7.111,16H38.889A1.11,1.11,0,0,1,40,17.111.889.889,0,0,1,39.111,18Zm0-8H6.889A.889.889,0,0,1,6,9.111,1.11,1.11,0,0,1,7.111,8H38.889A1.11,1.11,0,0,1,40,9.111.889.889,0,0,1,39.111,10Z" transform="translate(882 9969)"/>
</svg>
