<svg xmlns="http://www.w3.org/2000/svg" viewBox="-258 10507 44 26">
  <defs>
    <style>
      .cls-1 {
        fill: #fff;
        fill-rule: evenodd;
      }
    </style>
  </defs>
  <path id="Path_1112" data-name="Path 1112" class="cls-1" d="M40,10.182V26H4V10.182L0,12V10L22,0h0L44,10v2ZM6,9.273v3.466a19.305,19.305,0,0,1,4.132-5.344ZM6,16H6V26H38V16h0c-1.179-5.374-5.267-8.611-8.348-10.348L30,6H14l.348-.348C11.267,7.389,7.179,10.626,6,16ZM22,2,17.6,4h8.8ZM33.868,7.395A19.305,19.305,0,0,1,38,12.739V9.273Z" transform="translate(-258 10507)"/>
</svg>
