<svg xmlns="http://www.w3.org/2000/svg" viewBox="1400 6318 30 30">
  <defs>
    <style>
      .cls-1 {
        fill: #fff;
        stroke: #455860;
        stroke-width: 2px;
      }

      .cls-2 {
        fill: #455860;
      }

      .cls-3 {
        stroke: none;
      }

      .cls-4 {
        fill: none;
      }
    </style>
  </defs>
  <g id="Group_288" data-name="Group 288" transform="translate(1313 5280)">
    <g id="Ellipse_65" data-name="Ellipse 65" class="cls-1" transform="translate(87 1038)">
      <circle class="cls-3" cx="15" cy="15" r="15"/>
      <circle class="cls-4" cx="15" cy="15" r="14"/>
    </g>
    <path id="Path_1065" data-name="Path 1065" class="cls-2" d="M5.816,9.059a11.782,11.782,0,0,0,5.126,5.126l1.711-1.711a.773.773,0,0,1,.793-.187,8.872,8.872,0,0,0,2.777.443.78.78,0,0,1,.778.778v2.714a.78.78,0,0,1-.778.778A13.221,13.221,0,0,1,3,3.778.78.78,0,0,1,3.778,3H6.5a.78.78,0,0,1,.778.778,8.836,8.836,0,0,0,.443,2.777.781.781,0,0,1-.194.793Z" transform="translate(92 1043)"/>
  </g>
</svg>
