<svg xmlns="http://www.w3.org/2000/svg" viewBox="1257 1139 40 40">
  <defs>
    <style>
      .cls-1 {
        fill: none;
      }

      .cls-2, .cls-4 {
        fill: #fff;
      }

      .cls-2 {
        fill-rule: evenodd;
      }

      .cls-3, .cls-4 {
        stroke: none;
      }
    </style>
  </defs>
  <g id="Facebook" transform="translate(1212 191)">
    <g id="Path_1014" data-name="Path 1014" class="cls-1" transform="translate(45 948)">
      <path class="cls-3" d="M20,0A20,20,0,1,1,0,20,20,20,0,0,1,20,0Z"/>
      <path class="cls-4" d="M 20 38 C 24.80797004699707 38 29.32817077636719 36.12767028808594 32.72792053222656 32.72792053222656 C 36.12767028808594 29.32817077636719 38 24.80797004699707 38 20 C 38 15.19202995300293 36.12767028808594 10.67183017730713 32.72792053222656 7.272079944610596 C 29.32817077636719 3.872329950332642 24.80797004699707 2 20 2 C 15.19202995300293 2 10.67183017730713 3.872329950332642 7.272079944610596 7.272079944610596 C 3.872329950332642 10.67183017730713 2 15.19202995300293 2 20 C 2 24.80797004699707 3.872329950332642 29.32817077636719 7.272079944610596 32.72792053222656 C 10.67183017730713 36.12767028808594 15.19202995300293 38 20 38 M 20 40 C 8.954310417175293 40 0 31.04569053649902 0 20 C 0 8.954310417175293 8.954310417175293 0 20 0 C 31.04569053649902 0 40 8.954310417175293 40 20 C 40 31.04569053649902 31.04569053649902 40 20 40 Z"/>
    </g>
    <path id="Path_10" data-name="Path 10" class="cls-2" d="M13.206-.015a4.685,4.685,0,0,1,3.6,1.285l2.6-.89a7.176,7.176,0,0,1-1.6,2.176l2.2-.593a7.984,7.984,0,0,1-2.1,2.077,11.386,11.386,0,0,1-8.1,11.671c-3.1,1.02-7.993.407-9.8-1.385,2.5.08,4.8-.369,5.9-1.682a3.805,3.805,0,0,1-3.7-2.868h.1a1.92,1.92,0,0,0,1.5-.1c-1.858-.351-2.76-1.591-3-3.561.033-.033-.034-.363,0-.4l1.6.495v-.1a6.537,6.537,0,0,1-1.4-1.78C.506,3.175.8,1.151,1.406.776,2.792,2.9,6.569,4.747,9.706,5.029l.1-.2A4.025,4.025,0,0,1,13.206-.015Z" transform="translate(54.994 960.102)"/>
  </g>
</svg>
