<svg xmlns="http://www.w3.org/2000/svg" viewBox="-5023 15453 44.756 60">
  <defs>
    <style>
      .cls-1 {
        fill: #9d0303;
      }
    </style>
  </defs>
  <g id="noun_414673_cc" transform="translate(-5104.258 15659.721)">
    <g id="Group_482" data-name="Group 482" transform="translate(81.258 -206.721)">
      <path id="Path_1146" data-name="Path 1146" class="cls-1" d="M35.538,55.326a2.462,2.462,0,1,0,1.946,1.1A2.288,2.288,0,0,0,35.538,55.326Z" transform="translate(-22.58 -21.737)"/>
      <path id="Path_1147" data-name="Path 1147" class="cls-1" d="M54.052,49.109a14.453,14.453,0,0,0-12.519,0,.763.763,0,1,0,.708,1.351,13.088,13.088,0,0,1,11.121.005.778.778,0,0,0,.345.082.762.762,0,0,0,.345-1.442Z" transform="translate(-24.45 -19.917)"/>
      <path id="Path_1148" data-name="Path 1148" class="cls-1" d="M64.014,59.26c0-8.795-9.365-16.225-20.45-16.225a25.665,25.665,0,0,0-10.4,2.149,11.887,11.887,0,0,0-5.645-1.349,14.219,14.219,0,0,0-1.5.081,2.6,2.6,0,0,0-2.435,1.49c-.457,1.235.332,3,2.345,5.253a13.3,13.3,0,0,0-2.311,4.4c-2.609.39-4.221,1.935-4.348,4.206-.21,3.782,1.767,9.239,4,9.431a20.1,20.1,0,0,0,4.647-.362,19.252,19.252,0,0,0,3.062,2.2c-.476,2.378-.7,5.34.548,7.01a3.186,3.186,0,0,0,2.411,1.264c.119.008.236.012.35.012,1.758,0,3.987-.956,4.9-5.369a26.443,26.443,0,0,0,10.046-.239c1.049,3.652,2.789,5.5,5.178,5.5a4.872,4.872,0,0,0,.9-.088,3.18,3.18,0,0,0,2.252-1.555c1.052-1.845.441-4.819-.353-7.183C61.851,66.825,64.014,63.437,64.014,59.26Zm-8.12,9.666-.519.328.208.577c1.075,2.972,1.317,5.336.663,6.483a1.638,1.638,0,0,1-1.213.811,3.3,3.3,0,0,1-.617.061c-1.752,0-3.06-1.705-3.892-5.07l-.183-.742-.741.183a25.011,25.011,0,0,1-10.876.259l-.775-.152-.124.779c-.773,4.848-2.854,4.848-3.538,4.848q-.12,0-.247-.009a1.637,1.637,0,0,1-1.293-.654c-.77-1.031-.83-3.333-.164-6.318l.124-.556-.5-.277a17.8,17.8,0,0,1-3.546-2.529l-.3-.277-.4.091a18.44,18.44,0,0,1-4.569.413c-.779-.069-2.815-4.111-2.608-7.829.124-2.216,2.24-2.727,3.49-2.833l.544-.047.132-.53a11.861,11.861,0,0,1,2.558-4.815l.442-.521-.467-.5c-1.994-2.116-2.681-3.621-2.478-4.171.127-.343.785-.462,1.166-.5a12.8,12.8,0,0,1,1.336-.072,10.248,10.248,0,0,1,5.224,1.335l.346.2.363-.169A24.026,24.026,0,0,1,43.56,44.559c10.082,0,18.924,6.869,18.924,14.7C62.489,63.066,60.455,66.046,55.894,68.925Z" transform="translate(-19.258 -18.819)"/>
      <path id="Path_1149" data-name="Path 1149" class="cls-1" d="M47.411,30.217a9.469,9.469,0,1,0-9.469-9.469A9.479,9.479,0,0,0,47.411,30.217Zm0-17.413a7.944,7.944,0,1,1-7.944,7.944A7.953,7.953,0,0,1,47.411,12.8Z" transform="translate(-23.694 -11.279)"/>
      <path id="Path_1150" data-name="Path 1150" class="cls-1" d="M49.338,24.056a3.776,3.776,0,0,1-1.774-.47l-.32,1.25a4.308,4.308,0,0,0,1.816.448V26.31h1.047v-1.1a2.029,2.029,0,0,0,1.9-1.965c0-.972-.5-1.559-1.784-2.009-.907-.331-1.282-.566-1.282-.907,0-.3.224-.609.919-.609a3.326,3.326,0,0,1,1.538.374l.32-1.207a3.773,3.773,0,0,0-1.559-.352v-.939H49.113V18.61a1.959,1.959,0,0,0-1.806,1.9c0,1.036.779,1.57,1.922,1.954.791.267,1.143.524,1.143.93S49.947,24.056,49.338,24.056Z" transform="translate(-25.903 -12.779)"/>
    </g>
  </g>
</svg>
