<svg xmlns="http://www.w3.org/2000/svg" viewBox="2187 1531 91.579 58">
  <defs>
    <style>
      .cls-1 {
        fill: #fff;
        fill-rule: evenodd;
      }
    </style>
  </defs>
  <path id="icon_customer_service" class="cls-1" d="M64.522,33.142A49.2,49.2,0,0,0,45.79,37.306a49.2,49.2,0,0,0-18.732-4.164C18.046,33.142,0,38.674,0,47.642V58H91.579V47.642C91.579,38.674,73.533,33.142,64.522,33.142ZM49.952,53.858H4.162V47.642c0-2.97,9.285-10.356,22.9-10.356s22.9,7.386,22.9,10.356Zm37.465,0h-33.3V47.642c0-1.885-2.831-6.794-4.164-8.285,4.164-2.071,10.177-2.071,14.57-2.071,10.156,0,22.9,8.14,22.9,10.356ZM27.057,29A14.5,14.5,0,1,0,12.488,14.5,14.5,14.5,0,0,0,27.057,29Zm0-24.858A10.358,10.358,0,1,1,16.651,14.5,10.358,10.358,0,0,1,27.057,4.142ZM64.522,29a14.5,14.5,0,1,0-14.57-14.5A14.5,14.5,0,0,0,64.522,29Zm0-24.858a10.367,10.367,0,1,1-7.353,3.019,10.358,10.358,0,0,1,7.353-3.019Z" transform="translate(2187 1531)"/>
</svg>
