<svg xmlns="http://www.w3.org/2000/svg" viewBox="515 9969 44 44">
  <defs>
    <style>
      .cls-1 {
        fill: #9d0303;
        fill-rule: evenodd;
      }
    </style>
  </defs>
  <path id="Path_1098" data-name="Path 1098" class="cls-1" d="M21,35h2V33H21ZM22,0A22,22,0,1,0,44,22,22.008,22.008,0,0,0,22,0Zm0,42A20,20,0,1,1,42,22,20.027,20.027,0,0,1,22,42ZM22,8.988C17.035,8.988,13,12,13,18h2c0-4,2.568-7,7-7,2.471,0,6,3,6,7,0,5-7,3-7,13h2c0-8,7-7,7-13C30,13.207,26.965,8.988,22,8.988Z" transform="translate(515 9969)"/>
</svg>
