<svg xmlns="http://www.w3.org/2000/svg" viewBox="1497 1139 40 40">
  <defs>
    <style>
      .cls-1, .cls-4 {
        fill: none;
      }

      .cls-1 {
        stroke: #fff;
        stroke-width: 2px;
      }

      .cls-2 {
        fill: #fff;
      }

      .cls-3 {
        stroke: none;
      }
    </style>
  </defs>
  <g id="Facebook" transform="translate(1452 191)">
    <g id="Ellipse_5" data-name="Ellipse 5" class="cls-1" transform="translate(45 948)">
      <circle class="cls-3" cx="20" cy="20" r="20"/>
      <circle class="cls-4" cx="20" cy="20" r="19"/>
    </g>
    <path id="Path_1016" data-name="Path 1016" class="cls-2" d="M16.68,0H3.32A3.33,3.33,0,0,0,0,3.32V16.68A3.33,3.33,0,0,0,3.32,20H16.68A3.33,3.33,0,0,0,20,16.68V3.32A3.33,3.33,0,0,0,16.68,0ZM6.4,8.75h7.2a3.773,3.773,0,0,1,.21,1.25,3.809,3.809,0,0,1-7.617,0A3.773,3.773,0,0,1,6.4,8.75Zm11.1,0v7.5a1.252,1.252,0,0,1-1.25,1.25H3.75A1.252,1.252,0,0,1,2.5,16.25V8.75H4.453A5.541,5.541,0,0,0,4.316,10a5.684,5.684,0,1,0,11.367,0,5.837,5.837,0,0,0-.137-1.25Zm0-4.375A.629.629,0,0,1,16.875,5h-1.25A.629.629,0,0,1,15,4.375V3.125a.629.629,0,0,1,.625-.625h1.25a.629.629,0,0,1,.625.625Zm0,0" transform="translate(55 958)"/>
  </g>
</svg>
