<svg xmlns="http://www.w3.org/2000/svg" viewBox="948 200 44 28.6">
  <defs>
    <style>
      .cls-1 {
        fill: #455860;
        fill-rule: evenodd;
      }
    </style>
  </defs>
  <path id="icon_90mph_wind_warranty_black" class="cls-1" d="M36.3,15.4H0V13.2H36.3a5.447,5.447,0,0,0,5.5-5.5,5.5,5.5,0,0,0-11,0,1.1,1.1,0,0,1-2.2,0A7.7,7.7,0,1,1,44,7.7,7.653,7.653,0,0,1,36.3,15.4ZM20.9,11H2.2V8.8H20.9a3.241,3.241,0,0,0,3.3-3.3,3.3,3.3,0,0,0-6.6,0,1.1,1.1,0,0,1-2.2,0,5.5,5.5,0,0,1,11,0A5.447,5.447,0,0,1,20.9,11ZM37.4,23.1a5.5,5.5,0,0,1-11,0,1.1,1.1,0,0,1,2.2,0,3.3,3.3,0,1,0,3.3-3.3H13.2V17.6H31.9A5.447,5.447,0,0,1,37.4,23.1Z" transform="translate(948 200)"/>
</svg>
