<svg xmlns="http://www.w3.org/2000/svg" viewBox="4186 7421 252 120">
  <defs>
    <style>
      .cls-1 {
        fill: #455860;
        fill-rule: evenodd;
      }
    </style>
  </defs>
  <path id="Path_1056" data-name="Path 1056" class="cls-1" d="M252,118v2H0v-2H14V76.4L0,80V78L70,60V46.4L56,50V48l69-17.743V5.816a3.011,3.011,0,1,1,2.532-.258c2.7-.7,8.238-1.788,10.468.442,4.268,4.268,12,0,12,0V19s-7.752,4.248-12,0c-2.391-2.391-8.58-.973-11-.3V30.257L196,48v2l-14-3.6V60l70,18v2l-14-3.6V118ZM70,62,16,75.886V118H70Zm57,56h33V63H127Zm-35,0h33V63H92Zm88-72.114L126,32,72,45.886V118H90V61h72v57h18Zm56,30L182,62v56h54ZM199,78h8V92H193V78h6Zm2,12h4V86h-4Zm0-6h4V80h-4Zm-6,6h4V86h-4Zm0-6h4V80h-4Zm4,12h8v14H193V96h6Zm2,12h4v-4h-4Zm0-6h4V98h-4Zm-6,6h4v-4h-4Zm0-6h4V98h-4Zm22-24h8V92H211V78h6Zm2,12h4V86h-4Zm0-6h4V80h-4Zm-6,6h4V86h-4Zm0-6h4V80h-4Zm4,12h8v14H211V96h6Zm2,12h4v-4h-4Zm0-6h4V98h-4Zm-6,6h4v-4h-4Zm0-6h4V98h-4Zm-92-9a2,2,0,1,1,2-2A2,2,0,0,1,121,93Zm10,0a2,2,0,1,1,2-2A2,2,0,0,1,131,93ZM33,78h8V92H27V78h6Zm2,12h4V86H35Zm0-6h4V80H35Zm-6,6h4V86H29Zm0-6h4V80H29Zm4,12h8v14H27V96h6Zm2,12h4v-4H35Zm0-6h4V98H35Zm-6,6h4v-4H29Zm0-6h4V98H29ZM51,78h8V92H45V78h6Zm2,12h4V86H53Zm0-6h4V80H53Zm-6,6h4V86H47Zm0-6h4V80H47Zm4,12h8v14H45V96h6Zm2,12h4v-4H53Zm0-6h4V98H53Zm-6,6h4v-4H47Zm0-6h4V98H47Z" transform="translate(4186 7421)"/>
</svg>
