<svg xmlns="http://www.w3.org/2000/svg" viewBox="1718 200 44 42.308">
  <defs>
    <style>
      .cls-1 {
        fill: #455860;
        fill-rule: evenodd;
      }
    </style>
  </defs>
  <path id="_4_season_workmanship_warranty_black" data-name="4_season_workmanship_warranty_black" class="cls-1" d="M38.077,28.769H11V27.077H38.077a4.231,4.231,0,1,0-4.231-4.231.846.846,0,1,1-1.692,0,5.923,5.923,0,1,1,5.923,5.923ZM22.846,25.385H12.692V23.692H22.846a2.538,2.538,0,1,0-2.538-2.538.846.846,0,1,1-1.692,0,4.231,4.231,0,1,1,4.231,4.231Zm11.791-9.266a7.547,7.547,0,0,0-13.314-.38c-.085.254-.254.338-.508.423a.912.912,0,0,1-.677-.169,4.549,4.549,0,0,0-2.369-.677,4.2,4.2,0,0,0-4.231,3.977.863.863,0,0,1-.423.677,1.167,1.167,0,0,1-.762,0,4.937,4.937,0,0,0-2.2-.508,5.518,5.518,0,0,0,0,11H34.692a4.231,4.231,0,1,1-4.231,4.231.846.846,0,1,1,1.692,0,2.538,2.538,0,1,0,2.538-2.538H10.154c-3.638,0-6.769-3.385-6.769-7.192a7.342,7.342,0,0,1,3.3-6.092,9.053,9.053,0,0,1-.762-3.638,9.281,9.281,0,0,1,9.308-9.308,9.119,9.119,0,0,1,8.377,5.331,8.624,8.624,0,0,1,4.315-1.1,9.307,9.307,0,0,1,8.2,5.106Zm-19.407-8.5a7.584,7.584,0,0,0-7.615,7.615,6.746,6.746,0,0,0,.592,2.877,4.964,4.964,0,0,1,1.946-.338,6.6,6.6,0,0,1,1.862.254,5.9,5.9,0,0,1,5.754-4.485,6.219,6.219,0,0,1,2.538.592,10.149,10.149,0,0,1,1.862-1.946A7.485,7.485,0,0,0,15.231,7.615Zm9.054-.254a.818.818,0,0,1-1.185,0,.818.818,0,0,1,0-1.185l3.385-3.385a.838.838,0,1,1,1.185,1.185ZM15.231,5.077a.8.8,0,0,1-.846-.846V.846a.846.846,0,0,1,1.692,0V4.231A.8.8,0,0,1,15.231,5.077ZM6.769,7.615a.768.768,0,0,1-.592-.254L2.792,3.977A.838.838,0,0,1,3.977,2.792L7.362,6.177a.818.818,0,0,1,0,1.185A.768.768,0,0,1,6.769,7.615ZM5.077,15.231a.8.8,0,0,1-.846.846H.846a.846.846,0,0,1,0-1.692H4.231A.8.8,0,0,1,5.077,15.231ZM7.023,34.1a.818.818,0,0,1,1.185,0l.677.677.677-.677a.838.838,0,0,1,1.185,1.185l-.677.677.677.677a.818.818,0,0,1,0,1.185.818.818,0,0,1-1.185,0l-.677-.677-.677.677a.914.914,0,0,1-.592.254.914.914,0,0,1-.592-.254.818.818,0,0,1,0-1.185l.677-.677-.677-.677A.818.818,0,0,1,7.023,34.1Zm5.923,4.231a.818.818,0,0,1,1.185,0l.677.677.677-.677a.838.838,0,1,1,1.185,1.185l-.677.677.677.677a.818.818,0,0,1,0,1.185.818.818,0,0,1-1.185,0l-.677-.677-.677.677a.818.818,0,0,1-1.185,0,.818.818,0,0,1,0-1.185l.677-.677-.677-.677A.818.818,0,0,1,12.946,38.331ZM18.869,34.1a.818.818,0,0,1,1.185,0l.677.677.677-.677a.838.838,0,0,1,1.185,1.185l-.677.677.677.677a.818.818,0,0,1,0,1.185.818.818,0,0,1-1.185,0l-.677-.677-.677.677a.818.818,0,0,1-1.185,0,.818.818,0,0,1,0-1.185l.677-.677-.677-.677A.818.818,0,0,1,18.869,34.1Zm5.923,4.231a.818.818,0,0,1,1.185,0l.677.677.677-.677a.838.838,0,1,1,1.185,1.185l-.677.677.677.677a.818.818,0,0,1,0,1.185.818.818,0,0,1-1.185,0l-.677-.677-.677.677a.818.818,0,0,1-1.185,0,.818.818,0,0,1,0-1.185l.677-.677-.677-.677A.818.818,0,0,1,24.792,38.331Z" transform="translate(1718 200)"/>
</svg>
