<svg xmlns="http://www.w3.org/2000/svg" viewBox="883 9877 44 26">
  <defs>
    <style>
      .cls-1 {
        fill: #9d0303;
        fill-rule: evenodd;
      }
    </style>
  </defs>
  <path id="Path_1099" data-name="Path 1099" class="cls-1" d="M0,26V0H44V26ZM42,2H2V24H42ZM4,8V4H8ZM4,22V18l4,4Zm18.146-4.488c.054.006.107.011.161.013a2.047,2.047,0,0,0,2.055-2.049c0-1.14-.724-1.843-2.106-2.466-1.906-.828-3.082-1.782-3.082-3.586A3.274,3.274,0,0,1,22,6.088V3.994h1.156V6a4.62,4.62,0,0,1,2.429.725L25.112,8.1a4.2,4.2,0,0,0-2.353-.7,1.773,1.773,0,0,0-1.978,1.783c0,1.079.689,1.618,2.316,2.363,1.923.87,2.9,1.945,2.9,3.794a3.482,3.482,0,0,1-2.951,3.523v2.157H21.864V18.919a5.055,5.055,0,0,1-2.857-.911l.449-1.389A4.637,4.637,0,0,0,22.146,17.512ZM40,8,36,4h4Zm0,14H36l4-4Z" transform="translate(883 9877)"/>
</svg>
