<svg xmlns="http://www.w3.org/2000/svg" viewBox="821 2312 36 36">
  <defs>
    <style>
      .cls-1 {
        fill: #9d0303;
      }
    </style>
  </defs>
  <path id="Path_2" data-name="Path 2" class="cls-1" d="M10.24,18.58A30.3,30.3,0,0,0,23.42,31.76l4.4-4.4a1.989,1.989,0,0,1,2.04-.48A22.814,22.814,0,0,0,37,28.02a2.006,2.006,0,0,1,2,2V37a2.006,2.006,0,0,1-2,2A34,34,0,0,1,3,5,2.006,2.006,0,0,1,5,3h7a2.006,2.006,0,0,1,2,2,22.721,22.721,0,0,0,1.14,7.14,2.007,2.007,0,0,1-.5,2.04Z" transform="translate(818 2309)"/>
</svg>
