<svg xmlns="http://www.w3.org/2000/svg" viewBox="126 9869 42 42">
  <defs>
    <style>
      .cls-1 {
        fill: #9d0303;
        fill-rule: evenodd;
      }
    </style>
  </defs>
  <path id="Path_1095" data-name="Path 1095" class="cls-1" d="M23.09,29.034C22.125,33.047,29.007,42,21,42A21,21,0,1,1,42,21C42,32,28,21.321,23.09,29.034ZM21,2a19,19,0,0,0,0,38c5.417.009-2.623-9.475.948-12.981C27.612,19.9,40,28.692,40,21A19,19,0,0,0,21,2ZM32,20a4,4,0,1,1,4-4A4,4,0,0,1,32,20Zm0-6a2,2,0,1,0,2,2A2,2,0,0,0,32,14Zm-9-1a4,4,0,1,1,4-4A4,4,0,0,1,23,13Zm0-6a2,2,0,1,0,2,2A2,2,0,0,0,23,7ZM12,17a4,4,0,1,1,4-4A4,4,0,0,1,12,17Zm0-6a2,2,0,1,0,2,2A2,2,0,0,0,12,11Zm1,13a4,4,0,1,1-4-4A4,4,0,0,1,13,24ZM7,24a2,2,0,1,0,2-2A2,2,0,0,0,7,24Z" transform="translate(126 9869)"/>
</svg>
