<svg xmlns="http://www.w3.org/2000/svg" viewBox="909.359 2504 17.641 19.921">
  <defs>
    <style>
      .cls-1 {
        fill: #c1202f;
      }
    </style>
  </defs>
  <path id="Subtraction_4" data-name="Subtraction 4" class="cls-1" d="M14.7,19.921A2.9,2.9,0,0,1,11.838,17a2.8,2.8,0,0,1,.08-.649L4.94,12.189a2.91,2.91,0,0,1-2,.81,3,3,0,0,1,0-6,2.915,2.915,0,0,1,2,.811L11.849,3.7a3.26,3.26,0,0,1-.088-.7,2.94,2.94,0,1,1,5.879,0A2.974,2.974,0,0,1,14.7,6a2.918,2.918,0,0,1-2-.81L5.792,9.3a3.446,3.446,0,0,1,.088.7,3.452,3.452,0,0,1-.088.7l6.989,4.148A2.84,2.84,0,0,1,14.7,14.08a2.921,2.921,0,0,1,0,5.841Zm0-4.422A1.5,1.5,0,1,0,16.17,17,1.486,1.486,0,0,0,14.7,15.5ZM2.938,8.5a1.5,1.5,0,0,0,0,3,1.5,1.5,0,0,0,0-3ZM14.7,1.5A1.5,1.5,0,1,0,16.17,3,1.487,1.487,0,0,0,14.7,1.5Z" transform="translate(909.359 2504)"/>
</svg>
