<svg xmlns="http://www.w3.org/2000/svg" viewBox="-560 10506 44 28">
  <defs>
    <style>
      .cls-1 {
        fill: #fff;
        fill-rule: evenodd;
      }
    </style>
  </defs>
  <path id="Path_1102" data-name="Path 1102" class="cls-1" d="M31,16a23.539,23.539,0,0,0-9,2.01A23.539,23.539,0,0,0,13,16C8.67,16,0,18.67,0,23v5H44V23C44,18.67,35.33,16,31,16ZM24,26H2V23c0-1.434,4.461-5,11-5s11,3.566,11,5Zm18,0H26V23c0-.91-1.36-3.28-2-4,2-1,4.89-1,7-1,4.88,0,11,3.93,11,5ZM13,14A7,7,0,1,0,6,7,7,7,0,0,0,13,14ZM13,2A5,5,0,1,1,8,7,5.008,5.008,0,0,1,13,2ZM31,14a7,7,0,1,0-7-7A7,7,0,0,0,31,14ZM31,2a5,5,0,1,1-5,5A4.993,4.993,0,0,1,31,2Z" transform="translate(-560 10506)"/>
</svg>
