<svg xmlns="http://www.w3.org/2000/svg" viewBox="136 1147 53 60">
  <defs>
    <style>
      .cls-1 {
        fill: #9d0303;
        fill-rule: evenodd;
      }
    </style>
  </defs>
  <path id="Path_1017" data-name="Path 1017" class="cls-1" d="M0,60V50c0-8.883,17.672-13.333,26.5-13.333S53,41.117,53,50V60ZM49.688,50c0-5-13.25-9.98-23.188-10C16.8,40,3.313,45,3.313,50v6.667H49.688ZM39.75,20h0a13.25,13.25,0,1,1-26.5,0H6.625V16.667H10.27a16.478,16.478,0,0,1,6.292-9.892V3.333h3.313V4.8A16.606,16.606,0,0,1,24.844,3.48V0h3.313V3.48A16.606,16.606,0,0,1,33.125,4.8V3.333h3.313V6.775a16.478,16.478,0,0,1,6.292,9.892h3.645V20H39.75ZM26.5,30a9.968,9.968,0,0,0,9.938-10H16.563A9.968,9.968,0,0,0,26.5,30Zm9.938-18.76v2.093H33.125V8.527a13.134,13.134,0,0,0-4.969-1.718V10H24.844V6.808a13.134,13.134,0,0,0-4.969,1.718v4.807H16.563V11.24a13.228,13.228,0,0,0-2.879,5.427H39.316A13.227,13.227,0,0,0,36.438,11.24Z" transform="translate(136 1147)"/>
</svg>
