<svg xmlns="http://www.w3.org/2000/svg" viewBox="-5023 15301 54 59">
  <defs>
    <style>
      .cls-1 {
        fill: #9d0303;
        fill-rule: evenodd;
      }
    </style>
  </defs>
  <path id="Path_1155" data-name="Path 1155" class="cls-1" d="M56,59H10a4,4,0,0,1-4-4V23a4,4,0,0,1,4-4H56a4,4,0,0,1,4,4V55A4,4,0,0,1,56,59Zm2-17H39.364A1.364,1.364,0,0,1,38,40.636V37.364A1.364,1.364,0,0,1,39.364,36H58V23a2,2,0,0,0-2-2H10a2,2,0,0,0-2,2V55a2,2,0,0,0,2,2H56a2,2,0,0,0,2-2ZM44,39a2,2,0,1,0-2,2A2,2,0,0,0,44,39ZM52,6H49V9a1,1,0,0,1-2,0V6H44a1,1,0,0,1,0-2h3V1a1,1,0,0,1,2,0V4h3a1,1,0,0,1,0,2ZM40,13H37v3a1,1,0,0,1-2,0V13H32a1,1,0,0,1,0-2h3V8a1,1,0,0,1,2,0v3h3a1,1,0,0,1,0,2ZM28,6H25V9a1,1,0,0,1-2,0V6H20a1,1,0,0,1,0-2h3V1a1,1,0,0,1,2,0V4h3a1,1,0,0,1,0,2ZM16,13H13v3a1,1,0,0,1-2,0V13H8a1,1,0,0,1,0-2h3V8a1,1,0,0,1,2,0v3h3a1,1,0,0,1,0,2Z" transform="translate(-5029 15301)"/>
</svg>
