<svg xmlns="http://www.w3.org/2000/svg" viewBox="1377 1139 40 40">
  <defs>
    <style>
      .cls-1, .cls-4 {
        fill: none;
      }

      .cls-1 {
        stroke: #fff;
        stroke-width: 2px;
      }

      .cls-2 {
        fill: #fff;
      }

      .cls-3 {
        stroke: none;
      }
    </style>
  </defs>
  <g id="Facebook" transform="translate(1332 191)">
    <g id="Ellipse_5" data-name="Ellipse 5" class="cls-1" transform="translate(45 948)">
      <circle class="cls-3" cx="20" cy="20" r="20"/>
      <circle class="cls-4" cx="20" cy="20" r="19"/>
    </g>
    <g id="XMLID_1_" transform="translate(55 961)">
      <path id="Subtraction_3" data-name="Subtraction 3" class="cls-2" d="M-366-3712.909c-.062,0-6.268,0-7.806-.421a2.529,2.529,0,0,1-1.772-1.784,26.274,26.274,0,0,1-.421-4.84,27.043,27.043,0,0,1,.409-4.841,2.525,2.525,0,0,1,1.773-1.784c1.55-.416,7.755-.421,7.818-.421s6.268,0,7.807.421a2.53,2.53,0,0,1,1.772,1.784,26.338,26.338,0,0,1,.42,4.841,27.035,27.035,0,0,1-.409,4.84,2.521,2.521,0,0,1-1.772,1.784C-359.732-3712.914-365.938-3712.909-366-3712.909Zm-2.046-10.023h0v5.956l5.228-2.977Z" transform="translate(376 3727)"/>
    </g>
  </g>
</svg>
