<svg xmlns="http://www.w3.org/2000/svg" viewBox="463 1147 49 60">
  <defs>
    <style>
      .cls-1 {
        fill: #9d0303;
        fill-rule: evenodd;
      }
    </style>
  </defs>
  <path id="Path_1018" data-name="Path 1018" class="cls-1" d="M24.5,60C10.44,56.55,0,42.423,0,27.273V10.909L24.5,0,49,10.909V27.273C49,42.423,38.56,56.55,24.5,60ZM46.278,12.273,24.5,2.727,2.722,12.273v15C4.083,43.636,14.36,54.15,24.5,57.273c10.14-3.123,20.417-13.636,21.778-30ZM24.5,40.909A10.909,10.909,0,1,1,35.389,30,10.9,10.9,0,0,1,24.5,40.909Zm0-19.091A8.182,8.182,0,1,0,32.667,30,8.174,8.174,0,0,0,24.5,21.818Zm0,12.273-1.361,1.364-1.361-1.364h0l-2.722-2.727L20.417,30l2.722,2.727,5.444-5.455,1.361,1.364L24.5,34.091Z" transform="translate(463 1147)"/>
</svg>
