<svg xmlns="http://www.w3.org/2000/svg" viewBox="505 9869 64 42">
  <defs>
    <style>
      .cls-1 {
        fill: #9d0303;
        fill-rule: evenodd;
      }
    </style>
  </defs>
  <path id="Path_1096" data-name="Path 1096" class="cls-1" d="M59,36a6,6,0,0,1-12,0H26a6,6,0,0,1-12,0H10V23.82A11.993,11.993,0,1,1,23.82,10H46v4h6L64,26V36ZM20,40a4,4,0,1,0-4-4A4,4,0,0,0,20,40ZM12,2A10,10,0,1,0,22,12,10,10,0,0,0,12,2ZM46,16H44V12H24A12,12,0,0,1,12,24V34h2.367a5.966,5.966,0,0,1,11.266,0H46Zm7,24a4,4,0,1,0-4-4A4,4,0,0,0,53,40ZM51,16H48V26H61ZM62,28H48v4.691A5.977,5.977,0,0,1,58.633,34H62ZM14.376,13.847l-2.848-1.714A1.157,1.157,0,0,1,11,10.966V5a1,1,0,0,1,2,0v5.379l2.472,1.488a1.172,1.172,0,0,1,.4,1.562A1.073,1.073,0,0,1,14.376,13.847Z" transform="translate(505 9869)"/>
</svg>
