<svg xmlns="http://www.w3.org/2000/svg" viewBox="-580 10264 70 70">
  <defs>
    <style>
      .cls-1 {
        fill: none;
      }

      .cls-2, .cls-4 {
        fill: #9d0303;
      }

      .cls-2 {
        fill-rule: evenodd;
      }

      .cls-3, .cls-4 {
        stroke: none;
      }
    </style>
  </defs>
  <g id="Group_283" data-name="Group 283" transform="translate(-1303 9403)">
    <g id="Path_1071" data-name="Path 1071" class="cls-1" transform="translate(723 861)">
      <path class="cls-3" d="M35,0A35,35,0,1,1,0,35,35,35,0,0,1,35,0Z"/>
      <path class="cls-4" d="M 35 68 C 39.45585632324219 68 43.7773551940918 67.12776947021484 47.84447860717773 65.40752410888672 C 51.77385711669922 63.74553298950195 55.3032112121582 61.3658332824707 58.33452224731445 58.33452224731445 C 61.3658332824707 55.3032112121582 63.74553298950195 51.77385711669922 65.40752410888672 47.84447860717773 C 67.12776947021484 43.7773551940918 68 39.45585632324219 68 35 C 68 30.54414367675781 67.12776947021484 26.2226448059082 65.40752410888672 22.15552139282227 C 63.74553298950195 18.22614479064941 61.3658332824707 14.6967887878418 58.33452224731445 11.66547775268555 C 55.3032112121582 8.634166717529297 51.77385711669922 6.254466533660889 47.84447860717773 4.592477798461914 C 43.7773551940918 2.872233390808105 39.45585632324219 2 35 2 C 30.54414367675781 2 26.2226448059082 2.872233390808105 22.15552139282227 4.592477798461914 C 18.22614479064941 6.254466533660889 14.6967887878418 8.634166717529297 11.66547775268555 11.66547775268555 C 8.634166717529297 14.6967887878418 6.254466533660889 18.22614479064941 4.592477798461914 22.15552139282227 C 2.872233390808105 26.2226448059082 2 30.54414367675781 2 35 C 2 39.45585632324219 2.872233390808105 43.7773551940918 4.592477798461914 47.84447860717773 C 6.254466533660889 51.77385711669922 8.634166717529297 55.3032112121582 11.66547775268555 58.33452224731445 C 14.6967887878418 61.3658332824707 18.22614479064941 63.74553298950195 22.15552139282227 65.40752410888672 C 26.2226448059082 67.12776947021484 30.54414367675781 68 35 68 M 35 70 C 15.67003345489502 70 0 54.3299674987793 0 35 C 0 15.67003345489502 15.67003345489502 0 35 0 C 54.3299674987793 0 70 15.67003345489502 70 35 C 70 54.3299674987793 54.3299674987793 70 35 70 Z"/>
    </g>
    <path id="Path_1066" data-name="Path 1066" class="cls-2" d="M40,10.182V26H4V10.182L0,12V10L22,0h0L44,10v2ZM6,9.273v3.466a19.305,19.305,0,0,1,4.132-5.344ZM6,16H6V26H38V16h0c-1.179-5.374-5.267-8.611-8.348-10.348L30,6H14l.348-.348C11.267,7.389,7.179,10.626,6,16ZM22,2,17.6,4h8.8ZM33.868,7.395A19.305,19.305,0,0,1,38,12.739V9.273Z" transform="translate(736 883)"/>
  </g>
</svg>
