<svg xmlns="http://www.w3.org/2000/svg" viewBox="1945 1531 60 60.003">
  <defs>
    <style>
      .cls-1 {
        fill: #fff;
      }
    </style>
  </defs>
  <g id="icon_engineering" transform="translate(1945 1531)">
    <path id="Path_1113" data-name="Path 1113" class="cls-1" d="M46.35,956.362a1.438,1.438,0,0,0-1.264.938l-.836,2.894a12.535,12.535,0,0,0-1.386.571L40.257,959.3a1.343,1.343,0,0,0-1.569.224l-2.833,2.833a1.342,1.342,0,0,0-.2,1.549l1.467,2.649a12.41,12.41,0,0,0-.591,1.365l-2.894.836A1.342,1.342,0,0,0,32.7,970v4.015a1.342,1.342,0,0,0,.937,1.264l2.894.815a12.4,12.4,0,0,0,.591,1.365l-1.467,2.649a1.342,1.342,0,0,0,.2,1.549l2.833,2.833a1.343,1.343,0,0,0,1.569.224l2.609-1.467a12.578,12.578,0,0,0,1.406.591l.815,2.874a1.343,1.343,0,0,0,1.264.958h3.995a1.346,1.346,0,0,0,1.264-.958l.815-2.874a12.566,12.566,0,0,0,1.406-.591l2.609,1.467a1.343,1.343,0,0,0,1.569-.224l2.833-2.833a1.342,1.342,0,0,0,.2-1.549l-1.467-2.649a12.418,12.418,0,0,0,.591-1.365l2.894-.815a1.343,1.343,0,0,0,.94-1.267V970a1.342,1.342,0,0,0-.937-1.243l-2.894-.836a12.4,12.4,0,0,0-.591-1.365l1.467-2.649a1.342,1.342,0,0,0-.2-1.549l-2.833-2.833a1.343,1.343,0,0,0-1.569-.224l-2.609,1.467a12.524,12.524,0,0,0-1.386-.571l-.836-2.894a1.342,1.342,0,0,0-1.264-.937Zm.978,2.609h2.038L50.1,961.5a1.33,1.33,0,0,0,.9.9,9.847,9.847,0,0,1,2.262.938,1.33,1.33,0,0,0,1.284.02l2.3-1.284,1.447,1.427-1.284,2.323a1.33,1.33,0,0,0,0,1.264,9.913,9.913,0,0,1,.958,2.262,1.33,1.33,0,0,0,.9.917l2.527.734v2.038l-2.527.713a1.33,1.33,0,0,0-.9.917,9.91,9.91,0,0,1-.958,2.262,1.33,1.33,0,0,0,0,1.284l1.284,2.3-1.427,1.427-2.323-1.284a1.331,1.331,0,0,0-1.284.02,9.847,9.847,0,0,1-2.262.938,1.33,1.33,0,0,0-.9.9l-.734,2.548H47.329l-.734-2.548a1.33,1.33,0,0,0-.9-.9,9.843,9.843,0,0,1-2.262-.937,1.33,1.33,0,0,0-1.284-.02l-2.323,1.284-1.426-1.43,1.284-2.3a1.33,1.33,0,0,0,0-1.284,9.911,9.911,0,0,1-.958-2.262,1.33,1.33,0,0,0-.9-.917l-2.527-.713V971l2.527-.734a1.33,1.33,0,0,0,.9-.917,9.91,9.91,0,0,1,.958-2.262,1.33,1.33,0,0,0,0-1.264L38.4,963.5l1.447-1.427,2.3,1.284a1.33,1.33,0,0,0,1.284-.02,9.855,9.855,0,0,1,2.262-.937,1.329,1.329,0,0,0,.9-.9Zm1.019,6.522a6.522,6.522,0,1,0,6.522,6.522,6.522,6.522,0,0,0-6.522-6.522Zm0,2.609a3.89,3.89,0,1,1-2.773,1.139,3.913,3.913,0,0,1,2.773-1.139ZM19.9,979.84a1.461,1.461,0,0,0-1.264.938l-1,3.526a14.435,14.435,0,0,0-1.834.774l-3.22-1.793a1.343,1.343,0,0,0-1.569.224l-3.342,3.342a1.342,1.342,0,0,0-.2,1.549l1.773,3.2a14.62,14.62,0,0,0-.774,1.855l-3.526,1.019A1.342,1.342,0,0,0,4,995.717v4.749a1.342,1.342,0,0,0,.937,1.264l3.526,1a14.464,14.464,0,0,0,.774,1.855l-1.773,3.2a1.342,1.342,0,0,0,.2,1.549l3.342,3.342a1.343,1.343,0,0,0,1.569.224l3.2-1.773a14.407,14.407,0,0,0,1.855.754l1,3.526a1.343,1.343,0,0,0,1.264.958h4.728a1.346,1.346,0,0,0,1.264-.958l1-3.526a14.406,14.406,0,0,0,1.855-.754l3.2,1.773a1.343,1.343,0,0,0,1.569-.224l3.342-3.342a1.342,1.342,0,0,0,.2-1.549l-1.773-3.2a14.454,14.454,0,0,0,.774-1.855l3.526-1a1.343,1.343,0,0,0,.937-1.264v-4.749a1.342,1.342,0,0,0-.937-1.243l-3.526-1.019a14.618,14.618,0,0,0-.774-1.855l1.773-3.2a1.342,1.342,0,0,0-.2-1.549l-3.342-3.342a1.343,1.343,0,0,0-1.569-.224l-3.22,1.794a14.434,14.434,0,0,0-1.834-.774l-1-3.526a1.343,1.343,0,0,0-1.264-.937H19.9Zm.978,2.609H23.65l.9,3.159a1.33,1.33,0,0,0,.917.9,11.941,11.941,0,0,1,2.731,1.141,1.33,1.33,0,0,0,1.284,0l2.874-1.61L34.313,988,32.7,990.89a1.33,1.33,0,0,0,.02,1.284,11.876,11.876,0,0,1,1.121,2.731,1.33,1.33,0,0,0,.917.9l3.159.917v2.751l-3.159.917a1.331,1.331,0,0,0-.917.917,11.724,11.724,0,0,1-1.121,2.711,1.33,1.33,0,0,0-.02,1.284l1.61,2.894-1.957,1.957-2.874-1.61a1.33,1.33,0,0,0-1.284,0,11.942,11.942,0,0,1-2.731,1.141,1.33,1.33,0,0,0-.917.9l-.9,3.179H20.875l-.9-3.179a1.33,1.33,0,0,0-.917-.9,11.942,11.942,0,0,1-2.731-1.141,1.33,1.33,0,0,0-1.284,0l-2.874,1.61-1.957-1.957,1.61-2.894a1.331,1.331,0,0,0-.02-1.284,11.727,11.727,0,0,1-1.121-2.711,1.331,1.331,0,0,0-.917-.917L6.6,999.473v-2.751l3.159-.917a1.33,1.33,0,0,0,.917-.9,11.875,11.875,0,0,1,1.121-2.731,1.33,1.33,0,0,0,.02-1.284L10.212,988l1.957-1.957,2.874,1.61a1.33,1.33,0,0,0,1.284,0,11.938,11.938,0,0,1,2.731-1.141,1.33,1.33,0,0,0,.917-.9Zm1.386,7.826A7.826,7.826,0,1,0,30.09,998.1a7.826,7.826,0,0,0-7.826-7.826Zm0,2.609a5.2,5.2,0,1,1-3.7,1.524,5.217,5.217,0,0,1,3.7-1.524Z" transform="translate(-4 -956.362)"/>
  </g>
</svg>
