<svg xmlns="http://www.w3.org/2000/svg" viewBox="395 2458 40 40">
  <defs>
    <style>
      .cls-1 {
        fill: #de5145;
      }

      .cls-2 {
        fill: #fff;
        fill-rule: evenodd;
      }
    </style>
  </defs>
  <g id="Facebook" transform="translate(350 1510)">
    <circle id="Ellipse_5" data-name="Ellipse 5" class="cls-1" cx="20" cy="20" r="20" transform="translate(45 948)"/>
    <path id="Path_11" data-name="Path 11" class="cls-2" d="M17.734,6.636V8.891h-1.6V6.636H13.873v-1.6H16.13V2.776h1.6V5.032h2.257v1.6ZM6.342,12.771A6.383,6.383,0,0,1,6.342,0,6.007,6.007,0,0,1,10.606,1.67L8.784,3.5a3.342,3.342,0,0,0-2.442-.958A3.823,3.823,0,0,0,2.6,6.387a3.779,3.779,0,0,0,3.738,3.794A3.194,3.194,0,0,0,9.76,7.658H6.342V5.094h6.008a7.511,7.511,0,0,1,.109,1.293,8.47,8.47,0,0,1-.093,1.27A5.762,5.762,0,0,1,6.342,12.771Z" transform="translate(55.009 961.745)"/>
  </g>
</svg>
