<svg xmlns="http://www.w3.org/2000/svg" viewBox="2464 1671 26.839 60">
  <defs>
    <style>
      .cls-1 {
        fill: #fff;
      }
    </style>
  </defs>
  <g id="icon_sales" transform="translate(2207.239 1867.4)">
    <path id="Path_1107" data-name="Path 1107" class="cls-1" d="M61.6,57.127c0-6.221-4.343-11.047-11.615-12.91l-.045-.011V24.195c5.243,0,8.489,4.385,8.489,4.385l2.817-2.115s-4.864-5.717-11.307-5.8V15.6H46.421v5.315C39.775,22.174,34.761,27.56,34.761,34A12.945,12.945,0,0,0,42.07,45.549a25.523,25.523,0,0,0,4.351,1.419V66.935c-5.03-.311-8.489-4.385-8.489-4.385l-2.817,2.115s4.607,6.038,11.307,5.8V75.6h3.523V70.215C56.59,68.957,61.6,63.571,61.6,57.127ZM43.517,42.338a9.324,9.324,0,0,1-5.233-8.333c0-4.519,3.452-8.326,8.137-9.484v18.8a19.3,19.3,0,0,1-2.9-.983ZM49.944,66.61V47.867c2.968.916,8.136,3.356,8.137,9.26C58.081,61.646,54.628,65.454,49.944,66.61Z" transform="translate(222 -212)"/>
  </g>
</svg>
