<svg xmlns="http://www.w3.org/2000/svg" viewBox="335 2458 40 40">
  <defs>
    <style>
      .cls-1 {
        fill: #2aa3f0;
      }

      .cls-2 {
        fill: #fff;
        fill-rule: evenodd;
      }
    </style>
  </defs>
  <g id="Facebook" transform="translate(290 1510)">
    <path id="Path_1014" data-name="Path 1014" class="cls-1" d="M20,0A20,20,0,1,1,0,20,20,20,0,0,1,20,0Z" transform="translate(45 948)"/>
    <path id="Path_10" data-name="Path 10" class="cls-2" d="M13.206-.015a4.685,4.685,0,0,1,3.6,1.285l2.6-.89a7.176,7.176,0,0,1-1.6,2.176l2.2-.593a7.984,7.984,0,0,1-2.1,2.077,11.386,11.386,0,0,1-8.1,11.671c-3.1,1.02-7.993.407-9.8-1.385,2.5.08,4.8-.369,5.9-1.682a3.805,3.805,0,0,1-3.7-2.868h.1a1.92,1.92,0,0,0,1.5-.1c-1.858-.351-2.76-1.591-3-3.561.033-.033-.034-.363,0-.4l1.6.495v-.1a6.537,6.537,0,0,1-1.4-1.78C.506,3.175.8,1.151,1.406.776,2.792,2.9,6.569,4.747,9.706,5.029l.1-.2A4.025,4.025,0,0,1,13.206-.015Z" transform="translate(54.994 960.102)"/>
  </g>
</svg>
